<?xml version="1.0" encoding="utf-8"?>
<!-- Generator: Adobe Illustrator 12.0.0, SVG Export Plug-In . SVG Version: 6.00 Build 51448)  -->
<!DOCTYPE svg PUBLIC "-//W3C//DTD SVG 1.1//EN" "http://www.w3.org/Graphics/SVG/1.1/DTD/svg11.dtd" [
	<!ENTITY ns_svg "http://www.w3.org/2000/svg">
	<!ENTITY ns_xlink "http://www.w3.org/1999/xlink">
]>
<svg  version="1.1" id="Layer_1" xmlns="&ns_svg;" xmlns:xlink="&ns_xlink;" width="90" height="100" viewBox="0 0 90 100"
	 overflow="visible" enable-background="new 0 0 90 100" xml:space="preserve">
<rect x="25.25" y="33.542" fill="none" stroke="#FFFFFF" stroke-width="2" stroke-miterlimit="10" width="39.5" height="32.916"/>
<path fill="none" stroke="#FFFFFF" stroke-miterlimit="10" d="M85.27,33.542H64.75v32.916h20.52C87.346,61.38,88.5,55.826,88.5,50
	S87.346,38.62,85.27,33.542z"/>
<path fill="none" stroke="#FFFFFF" stroke-miterlimit="10" d="M25.25,33.542H4.731C2.654,38.62,1.5,44.174,1.5,50
	s1.154,11.38,3.231,16.458H25.25V33.542z"/>
<g>
	<line fill="none" stroke="#FFFFFF" stroke-width="2" stroke-miterlimit="10" x1="45" y1="74.584" x2="45" y2="86"/>
	<g>
		<polygon fill="#FFFFFF" points="40.91,77.898 41.643,78.58 44.999,74.969 48.355,78.58 49.089,77.898 44.999,73.5 		"/>
	</g>
</g>
<g>
	<line fill="none" stroke="#FFFFFF" stroke-width="2" stroke-miterlimit="10" x1="45" y1="13" x2="45" y2="24.416"/>
	<g>
		<polygon fill="#FFFFFF" points="40.91,21.102 41.643,20.42 44.999,24.032 48.355,20.42 49.089,21.102 44.999,25.5 		"/>
	</g>
</g>
<circle fill="none" stroke="#FFFFFF" stroke-width="2" stroke-miterlimit="10" cx="45" cy="50" r="43.5"/>
<g>
	<line fill="none" stroke="#FFFFFF" stroke-width="2" stroke-miterlimit="10" x1="81.666" y1="50.5" x2="70.25" y2="50.5"/>
	<g>
		<polygon fill="#FFFFFF" points="78.352,46.41 77.67,47.143 81.281,50.499 77.67,53.855 78.352,54.589 82.75,50.499 		"/>
	</g>
</g>
<g>
	<line fill="none" stroke="#FFFFFF" stroke-width="2" stroke-miterlimit="10" x1="19.75" y1="50.5" x2="8.334" y2="50.5"/>
	<g>
		<polygon fill="#FFFFFF" points="11.648,46.41 12.33,47.142 8.718,50.499 12.33,53.855 11.648,54.589 7.25,50.499 		"/>
	</g>
</g>
</svg>
